<svg width="30" height="30" viewBox="0 0 30 30" fill="none" xmlns="http://www.w3.org/2000/svg">
<path d="M3 14.25C3 14.5455 3.0582 14.8381 3.17127 15.111C3.28434 15.384 3.45008 15.6321 3.65901 15.841C3.86794 16.0499 4.11598 16.2157 4.38896 16.3287C4.66194 16.4418 4.95453 16.5 5.25 16.5C5.54547 16.5 5.83806 16.4418 6.11104 16.3287C6.38402 16.2157 6.63206 16.0499 6.84099 15.841C7.04992 15.6321 7.21566 15.384 7.32873 15.111C7.4418 14.8381 7.5 14.5455 7.5 14.25V5.25C7.5 4.65326 7.26295 4.08097 6.84099 3.65901C6.41903 3.23705 5.84674 3 5.25 3C4.65326 3 4.08097 3.23705 3.65901 3.65901C3.23705 4.08097 3 4.65326 3 5.25V14.25ZM9 14.5005V6.3555C8.99974 5.79801 9.15483 5.25147 9.44787 4.7772C9.74091 4.30293 10.1603 3.9197 10.659 3.6705L10.734 3.633C11.5663 3.21701 12.484 3.0003 13.4145 3H21.5385C22.2323 2.99973 22.9047 3.23993 23.4413 3.67971C23.9779 4.11949 24.3455 4.73166 24.4815 5.412L26.2815 14.412C26.3685 14.8472 26.3578 15.2963 26.2503 15.7268C26.1428 16.1574 25.9411 16.5588 25.6597 16.902C25.3783 17.2452 25.0243 17.5217 24.6232 17.7116C24.2221 17.9014 23.7838 18 23.34 18H18V24C18 24.7956 17.6839 25.5587 17.1213 26.1213C16.5587 26.6839 15.7956 27 15 27C14.6022 27 14.2206 26.842 13.9393 26.5607C13.658 26.2794 13.5 25.8978 13.5 25.5V24.4995C13.5 23.2013 13.0789 21.9381 12.3 20.8995L10.2 18.1005C9.42107 17.0619 9 15.7987 9 14.5005Z" fill="black"/>
</svg>
