<svg width="27" height="28" viewBox="0 0 27 28" fill="none" xmlns="http://www.w3.org/2000/svg">
<path d="M11.3906 11.4043C11.0494 11.6324 10.7564 11.9256 10.5284 12.2669C10.3004 12.6083 10.1419 12.9912 10.062 13.3939C9.90043 14.207 10.0685 15.051 10.5293 15.7402C10.9901 16.4294 11.7057 16.9074 12.5189 17.0689C13.332 17.2304 14.176 17.0623 14.8652 16.6016C15.5544 16.1408 16.0324 15.4251 16.1939 14.612C16.3554 13.7988 16.1873 12.9548 15.7266 12.2656C15.2658 11.5764 14.5501 11.0985 13.737 10.937C12.9238 10.7754 12.0798 10.9435 11.3906 11.4043ZM19.7285 7.39648C19.4238 7.0918 19.0547 6.85156 18.6504 6.69336C17.5898 6.27734 15.2754 6.29492 13.7812 6.3125C13.541 6.3125 13.3184 6.31836 13.125 6.31836C12.9316 6.31836 12.7031 6.31836 12.457 6.3125C10.9629 6.29492 8.66016 6.27148 7.59961 6.69336C7.19531 6.85156 6.83203 7.0918 6.52148 7.39648C6.21094 7.70117 5.97656 8.07031 5.81836 8.47461C5.40234 9.53516 5.42578 11.8555 5.4375 13.3496C5.4375 13.5898 5.44336 13.8125 5.44336 14C5.44336 14.1875 5.44336 14.4102 5.4375 14.6504C5.42578 16.1445 5.40234 18.4648 5.81836 19.5254C5.97656 19.9297 6.2168 20.293 6.52148 20.6035C6.82617 20.9141 7.19531 21.1484 7.59961 21.3066C8.66016 21.7227 10.9746 21.7051 12.4688 21.6875C12.709 21.6875 12.9316 21.6816 13.125 21.6816C13.3184 21.6816 13.5469 21.6816 13.793 21.6875C15.2871 21.7051 17.5898 21.7285 18.6504 21.3066C19.0547 21.1484 19.418 20.9082 19.7285 20.6035C20.0391 20.2988 20.2734 19.9297 20.4316 19.5254C20.8535 18.4707 20.8301 16.1621 20.8125 14.6621C20.8125 14.416 20.8066 14.1875 20.8066 13.9941C20.8066 13.8008 20.8066 13.5781 20.8125 13.3262C20.8301 11.832 20.8535 9.52344 20.4316 8.46289C20.2734 8.05859 20.0332 7.69531 19.7285 7.38477V7.39648ZM15.7969 10.0039C16.8567 10.7125 17.5916 11.8132 17.84 13.0636C18.0883 14.3141 17.8297 15.612 17.1211 16.6719C16.4125 17.7317 15.3118 18.4666 14.0614 18.715C12.8109 18.9633 11.513 18.7047 10.4531 17.9961C9.92835 17.6456 9.47775 17.1952 9.12705 16.6705C8.77635 16.1459 8.53241 15.5573 8.40918 14.9384C8.28594 14.3195 8.28581 13.6824 8.4088 13.0635C8.53179 12.4445 8.77549 11.8558 9.12598 11.3311C9.47647 10.8063 9.92689 10.3557 10.4515 10.005C10.9762 9.65428 11.5647 9.41034 12.1836 9.28711C12.8025 9.16387 13.4397 9.16374 14.0586 9.28673C14.6776 9.40972 15.2662 9.65342 15.791 10.0039H15.7969ZM17.5078 9.92773C17.3262 9.80469 17.1797 9.62891 17.0918 9.42383C17.0039 9.21875 16.9863 8.99609 17.0273 8.77344C17.0684 8.55078 17.1797 8.35742 17.332 8.19922C17.4844 8.04102 17.6895 7.93555 17.9062 7.89453C18.123 7.85352 18.3516 7.87109 18.5566 7.95898C18.7617 8.04687 18.9375 8.1875 19.0605 8.36914C19.1836 8.55078 19.248 8.76758 19.248 8.99023C19.248 9.13672 19.2188 9.2832 19.166 9.41797C19.1133 9.55273 19.0254 9.67578 18.9258 9.78125C18.8262 9.88672 18.6973 9.96875 18.5625 10.0273C18.4277 10.0859 18.2812 10.1152 18.1348 10.1152C17.9121 10.1152 17.6953 10.0508 17.5137 9.92773H17.5078ZM26.25 4.625C26.25 2.55664 24.5684 0.875 22.5 0.875H3.75C1.68164 0.875 0 2.55664 0 4.625V23.375C0 25.4434 1.68164 27.125 3.75 27.125H22.5C24.5684 27.125 26.25 25.4434 26.25 23.375V4.625ZM20.918 21.793C19.8223 22.8887 18.4922 23.2344 16.9922 23.3105C15.4453 23.3984 10.8047 23.3984 9.25781 23.3105C7.75781 23.2344 6.42773 22.8887 5.33203 21.793C4.23633 20.6973 3.89062 19.3672 3.82031 17.8672C3.73242 16.3203 3.73242 11.6797 3.82031 10.1328C3.89648 8.63281 4.23633 7.30273 5.33203 6.20703C6.42773 5.11133 7.76367 4.76562 9.25781 4.69531C10.8047 4.60742 15.4453 4.60742 16.9922 4.69531C18.4922 4.77148 19.8223 5.11133 20.918 6.20703C22.0137 7.30273 22.3594 8.63281 22.4297 10.1328C22.5176 11.6738 22.5176 16.3086 22.4297 17.8613C22.3535 19.3613 22.0137 20.6914 20.918 21.7871V21.793Z" fill="#AC6195"/>
</svg>
